<mxfile host="app.diagrams.net" agent="Mozilla/5.0 (Windows NT 10.0; Win64; x64; rv:129.0) Gecko/20100101 Firefox/129.0" version="24.7.8">
  <diagram id="C5RBs43oDa-KdzZeNtuy" name="Page-1">
    <mxGraphModel dx="1687" dy="911" grid="1" gridSize="26" guides="1" tooltips="1" connect="1" arrows="1" fold="1" page="1" pageScale="1" pageWidth="2339" pageHeight="3300" background="#2B2C38" math="0" shadow="1">
      <root>
        <mxCell id="WIyWlLk6GJQsqaUBKTNV-0" />
        <mxCell id="WIyWlLk6GJQsqaUBKTNV-1" parent="WIyWlLk6GJQsqaUBKTNV-0" />
        <mxCell id="dpVUBXbJ4d0EwmAiKQ-G-7" style="edgeStyle=orthogonalEdgeStyle;rounded=0;orthogonalLoop=1;jettySize=auto;html=1;entryX=0.25;entryY=1;entryDx=0;entryDy=0;exitX=0.5;exitY=0;exitDx=0;exitDy=0;exitPerimeter=0;" edge="1" parent="WIyWlLk6GJQsqaUBKTNV-1" source="dpVUBXbJ4d0EwmAiKQ-G-1" target="dpVUBXbJ4d0EwmAiKQ-G-6">
          <mxGeometry relative="1" as="geometry">
            <mxPoint x="195" y="280" as="sourcePoint" />
            <Array as="points">
              <mxPoint x="195" y="281" />
              <mxPoint x="241" y="281" />
            </Array>
          </mxGeometry>
        </mxCell>
        <mxCell id="dpVUBXbJ4d0EwmAiKQ-G-1" value="&lt;font color=&quot;#ffffff&quot;&gt;M User 1&lt;/font&gt;" style="shape=umlActor;verticalLabelPosition=bottom;verticalAlign=top;html=1;outlineConnect=0;fillColor=#e1d5e7;strokeColor=#9673a6;" vertex="1" parent="WIyWlLk6GJQsqaUBKTNV-1">
          <mxGeometry x="180" y="290" width="30" height="50" as="geometry" />
        </mxCell>
        <mxCell id="dpVUBXbJ4d0EwmAiKQ-G-8" style="edgeStyle=orthogonalEdgeStyle;rounded=0;orthogonalLoop=1;jettySize=auto;html=1;entryX=0.5;entryY=1;entryDx=0;entryDy=0;" edge="1" parent="WIyWlLk6GJQsqaUBKTNV-1" source="dpVUBXbJ4d0EwmAiKQ-G-4" target="dpVUBXbJ4d0EwmAiKQ-G-6">
          <mxGeometry relative="1" as="geometry" />
        </mxCell>
        <mxCell id="dpVUBXbJ4d0EwmAiKQ-G-4" value="&lt;font color=&quot;#ffffff&quot;&gt;M User 2&lt;/font&gt;" style="shape=umlActor;verticalLabelPosition=bottom;verticalAlign=top;html=1;outlineConnect=0;fillColor=#e1d5e7;strokeColor=#9673a6;align=center;fontFamily=Helvetica;fontSize=12;fontColor=default;" vertex="1" parent="WIyWlLk6GJQsqaUBKTNV-1">
          <mxGeometry x="250" y="290" width="30" height="50" as="geometry" />
        </mxCell>
        <mxCell id="dpVUBXbJ4d0EwmAiKQ-G-9" style="edgeStyle=orthogonalEdgeStyle;rounded=0;orthogonalLoop=1;jettySize=auto;html=1;entryX=0.75;entryY=1;entryDx=0;entryDy=0;" edge="1" parent="WIyWlLk6GJQsqaUBKTNV-1" source="dpVUBXbJ4d0EwmAiKQ-G-5" target="dpVUBXbJ4d0EwmAiKQ-G-6">
          <mxGeometry relative="1" as="geometry">
            <Array as="points">
              <mxPoint x="335" y="280" />
              <mxPoint x="289" y="280" />
            </Array>
          </mxGeometry>
        </mxCell>
        <mxCell id="dpVUBXbJ4d0EwmAiKQ-G-5" value="&lt;font color=&quot;#fcfcfc&quot;&gt;M User 3&lt;/font&gt;" style="shape=umlActor;verticalLabelPosition=bottom;verticalAlign=top;html=1;outlineConnect=0;fillColor=#e1d5e7;strokeColor=#9673a6;align=center;fontFamily=Helvetica;fontSize=12;fontColor=default;" vertex="1" parent="WIyWlLk6GJQsqaUBKTNV-1">
          <mxGeometry x="320" y="290" width="30" height="50" as="geometry" />
        </mxCell>
        <mxCell id="dpVUBXbJ4d0EwmAiKQ-G-11" value="" style="edgeStyle=orthogonalEdgeStyle;rounded=0;orthogonalLoop=1;jettySize=auto;html=1;" edge="1" parent="WIyWlLk6GJQsqaUBKTNV-1" source="dpVUBXbJ4d0EwmAiKQ-G-6" target="dpVUBXbJ4d0EwmAiKQ-G-10">
          <mxGeometry relative="1" as="geometry" />
        </mxCell>
        <mxCell id="dpVUBXbJ4d0EwmAiKQ-G-6" value="Server" style="rounded=1;whiteSpace=wrap;html=1;" vertex="1" parent="WIyWlLk6GJQsqaUBKTNV-1">
          <mxGeometry x="217.5" y="170" width="95" height="30" as="geometry" />
        </mxCell>
        <mxCell id="dpVUBXbJ4d0EwmAiKQ-G-10" value="DB" style="shape=cylinder3;whiteSpace=wrap;html=1;boundedLbl=1;backgroundOutline=1;size=15;" vertex="1" parent="WIyWlLk6GJQsqaUBKTNV-1">
          <mxGeometry x="235" y="40" width="60" height="80" as="geometry" />
        </mxCell>
        <mxCell id="dpVUBXbJ4d0EwmAiKQ-G-13" value="" style="edgeStyle=orthogonalEdgeStyle;rounded=0;orthogonalLoop=1;jettySize=auto;html=1;" edge="1" parent="WIyWlLk6GJQsqaUBKTNV-1" source="dpVUBXbJ4d0EwmAiKQ-G-12" target="dpVUBXbJ4d0EwmAiKQ-G-10">
          <mxGeometry relative="1" as="geometry" />
        </mxCell>
        <mxCell id="dpVUBXbJ4d0EwmAiKQ-G-12" value="Tekla" style="shape=cylinder3;whiteSpace=wrap;html=1;boundedLbl=1;backgroundOutline=1;size=15;" vertex="1" parent="WIyWlLk6GJQsqaUBKTNV-1">
          <mxGeometry x="130" y="40" width="60" height="80" as="geometry" />
        </mxCell>
        <mxCell id="dpVUBXbJ4d0EwmAiKQ-G-15" style="edgeStyle=orthogonalEdgeStyle;rounded=0;orthogonalLoop=1;jettySize=auto;html=1;entryX=1;entryY=0.5;entryDx=0;entryDy=0;sourcePerimeterSpacing=0;startArrow=classic;startFill=1;" edge="1" parent="WIyWlLk6GJQsqaUBKTNV-1" source="dpVUBXbJ4d0EwmAiKQ-G-14" target="dpVUBXbJ4d0EwmAiKQ-G-6">
          <mxGeometry relative="1" as="geometry" />
        </mxCell>
        <mxCell id="dpVUBXbJ4d0EwmAiKQ-G-17" value="" style="edgeStyle=orthogonalEdgeStyle;rounded=0;orthogonalLoop=1;jettySize=auto;html=1;sourcePerimeterSpacing=0;startArrow=classic;startFill=1;" edge="1" parent="WIyWlLk6GJQsqaUBKTNV-1" source="dpVUBXbJ4d0EwmAiKQ-G-14" target="dpVUBXbJ4d0EwmAiKQ-G-16">
          <mxGeometry relative="1" as="geometry" />
        </mxCell>
        <mxCell id="dpVUBXbJ4d0EwmAiKQ-G-14" value="&lt;font color=&quot;#ffffff&quot;&gt;D User 3&lt;/font&gt;" style="shape=umlActor;verticalLabelPosition=bottom;verticalAlign=top;html=1;outlineConnect=0;fillColor=#f8cecc;strokeColor=#b85450;" vertex="1" parent="WIyWlLk6GJQsqaUBKTNV-1">
          <mxGeometry x="440" y="160" width="30" height="50" as="geometry" />
        </mxCell>
        <mxCell id="dpVUBXbJ4d0EwmAiKQ-G-16" value="Tekla" style="shape=cylinder3;whiteSpace=wrap;html=1;boundedLbl=1;backgroundOutline=1;size=15;" vertex="1" parent="WIyWlLk6GJQsqaUBKTNV-1">
          <mxGeometry x="560" y="145" width="60" height="80" as="geometry" />
        </mxCell>
        <mxCell id="dpVUBXbJ4d0EwmAiKQ-G-26" value="" style="edgeStyle=orthogonalEdgeStyle;rounded=0;orthogonalLoop=1;jettySize=auto;html=1;" edge="1" parent="WIyWlLk6GJQsqaUBKTNV-1" source="dpVUBXbJ4d0EwmAiKQ-G-24" target="dpVUBXbJ4d0EwmAiKQ-G-25">
          <mxGeometry relative="1" as="geometry" />
        </mxCell>
        <mxCell id="dpVUBXbJ4d0EwmAiKQ-G-30" value="" style="edgeStyle=orthogonalEdgeStyle;rounded=0;orthogonalLoop=1;jettySize=auto;html=1;" edge="1" parent="WIyWlLk6GJQsqaUBKTNV-1" source="dpVUBXbJ4d0EwmAiKQ-G-24" target="dpVUBXbJ4d0EwmAiKQ-G-29">
          <mxGeometry relative="1" as="geometry" />
        </mxCell>
        <mxCell id="dpVUBXbJ4d0EwmAiKQ-G-24" value="CHR" style="rounded=1;whiteSpace=wrap;html=1;" vertex="1" parent="WIyWlLk6GJQsqaUBKTNV-1">
          <mxGeometry x="173" y="442" width="67" height="26" as="geometry" />
        </mxCell>
        <mxCell id="dpVUBXbJ4d0EwmAiKQ-G-28" value="" style="edgeStyle=orthogonalEdgeStyle;rounded=0;orthogonalLoop=1;jettySize=auto;html=1;" edge="1" parent="WIyWlLk6GJQsqaUBKTNV-1" source="dpVUBXbJ4d0EwmAiKQ-G-25" target="dpVUBXbJ4d0EwmAiKQ-G-27">
          <mxGeometry relative="1" as="geometry" />
        </mxCell>
        <mxCell id="dpVUBXbJ4d0EwmAiKQ-G-25" value="Server" style="rounded=1;whiteSpace=wrap;html=1;" vertex="1" parent="WIyWlLk6GJQsqaUBKTNV-1">
          <mxGeometry x="320" y="442" width="67" height="26" as="geometry" />
        </mxCell>
        <mxCell id="dpVUBXbJ4d0EwmAiKQ-G-32" value="" style="edgeStyle=orthogonalEdgeStyle;rounded=0;orthogonalLoop=1;jettySize=auto;html=1;" edge="1" parent="WIyWlLk6GJQsqaUBKTNV-1" source="dpVUBXbJ4d0EwmAiKQ-G-27" target="dpVUBXbJ4d0EwmAiKQ-G-31">
          <mxGeometry relative="1" as="geometry" />
        </mxCell>
        <mxCell id="dpVUBXbJ4d0EwmAiKQ-G-27" value="User 2" style="rounded=1;whiteSpace=wrap;html=1;" vertex="1" parent="WIyWlLk6GJQsqaUBKTNV-1">
          <mxGeometry x="467" y="442" width="67" height="26" as="geometry" />
        </mxCell>
        <mxCell id="dpVUBXbJ4d0EwmAiKQ-G-29" value="User 1" style="rounded=1;whiteSpace=wrap;html=1;" vertex="1" parent="WIyWlLk6GJQsqaUBKTNV-1">
          <mxGeometry x="26" y="442" width="67" height="26" as="geometry" />
        </mxCell>
        <mxCell id="dpVUBXbJ4d0EwmAiKQ-G-34" value="" style="edgeStyle=orthogonalEdgeStyle;rounded=0;orthogonalLoop=1;jettySize=auto;html=1;" edge="1" parent="WIyWlLk6GJQsqaUBKTNV-1" source="dpVUBXbJ4d0EwmAiKQ-G-31" target="dpVUBXbJ4d0EwmAiKQ-G-33">
          <mxGeometry relative="1" as="geometry" />
        </mxCell>
        <mxCell id="dpVUBXbJ4d0EwmAiKQ-G-31" value="Tekla" style="rounded=1;whiteSpace=wrap;html=1;" vertex="1" parent="WIyWlLk6GJQsqaUBKTNV-1">
          <mxGeometry x="614" y="442" width="67" height="26" as="geometry" />
        </mxCell>
        <mxCell id="dpVUBXbJ4d0EwmAiKQ-G-36" value="" style="edgeStyle=orthogonalEdgeStyle;rounded=0;orthogonalLoop=1;jettySize=auto;html=1;" edge="1" parent="WIyWlLk6GJQsqaUBKTNV-1" source="dpVUBXbJ4d0EwmAiKQ-G-33" target="dpVUBXbJ4d0EwmAiKQ-G-35">
          <mxGeometry relative="1" as="geometry" />
        </mxCell>
        <mxCell id="dpVUBXbJ4d0EwmAiKQ-G-33" value="Server" style="rounded=1;whiteSpace=wrap;html=1;" vertex="1" parent="WIyWlLk6GJQsqaUBKTNV-1">
          <mxGeometry x="761" y="442" width="67" height="26" as="geometry" />
        </mxCell>
        <mxCell id="dpVUBXbJ4d0EwmAiKQ-G-35" value="User 1" style="rounded=1;whiteSpace=wrap;html=1;" vertex="1" parent="WIyWlLk6GJQsqaUBKTNV-1">
          <mxGeometry x="908" y="442" width="67" height="26" as="geometry" />
        </mxCell>
        <mxCell id="dpVUBXbJ4d0EwmAiKQ-G-39" value="" style="edgeStyle=orthogonalEdgeStyle;rounded=0;orthogonalLoop=1;jettySize=auto;html=1;" edge="1" parent="WIyWlLk6GJQsqaUBKTNV-1" source="dpVUBXbJ4d0EwmAiKQ-G-37" target="dpVUBXbJ4d0EwmAiKQ-G-38">
          <mxGeometry relative="1" as="geometry" />
        </mxCell>
        <mxCell id="dpVUBXbJ4d0EwmAiKQ-G-37" value="User 1 needs changes" style="rounded=1;whiteSpace=wrap;html=1;" vertex="1" parent="WIyWlLk6GJQsqaUBKTNV-1">
          <mxGeometry x="26" y="520" width="208" height="26" as="geometry" />
        </mxCell>
        <mxCell id="dpVUBXbJ4d0EwmAiKQ-G-41" value="" style="edgeStyle=orthogonalEdgeStyle;rounded=0;orthogonalLoop=1;jettySize=auto;html=1;" edge="1" parent="WIyWlLk6GJQsqaUBKTNV-1" source="dpVUBXbJ4d0EwmAiKQ-G-38" target="dpVUBXbJ4d0EwmAiKQ-G-40">
          <mxGeometry relative="1" as="geometry" />
        </mxCell>
        <mxCell id="dpVUBXbJ4d0EwmAiKQ-G-38" value="Change request object" style="rounded=1;whiteSpace=wrap;html=1;" vertex="1" parent="WIyWlLk6GJQsqaUBKTNV-1">
          <mxGeometry x="314" y="520" width="208" height="26" as="geometry" />
        </mxCell>
        <mxCell id="dpVUBXbJ4d0EwmAiKQ-G-43" value="" style="edgeStyle=orthogonalEdgeStyle;rounded=0;orthogonalLoop=1;jettySize=auto;html=1;" edge="1" parent="WIyWlLk6GJQsqaUBKTNV-1" source="dpVUBXbJ4d0EwmAiKQ-G-40" target="dpVUBXbJ4d0EwmAiKQ-G-42">
          <mxGeometry relative="1" as="geometry" />
        </mxCell>
        <mxCell id="dpVUBXbJ4d0EwmAiKQ-G-40" value="When any users enters the model, they can see the requested changes and their status" style="rounded=1;whiteSpace=wrap;html=1;" vertex="1" parent="WIyWlLk6GJQsqaUBKTNV-1">
          <mxGeometry x="614" y="507" width="208" height="52" as="geometry" />
        </mxCell>
        <mxCell id="dpVUBXbJ4d0EwmAiKQ-G-45" value="" style="edgeStyle=orthogonalEdgeStyle;rounded=0;orthogonalLoop=1;jettySize=auto;html=1;" edge="1" parent="WIyWlLk6GJQsqaUBKTNV-1" source="dpVUBXbJ4d0EwmAiKQ-G-42" target="dpVUBXbJ4d0EwmAiKQ-G-44">
          <mxGeometry relative="1" as="geometry" />
        </mxCell>
        <mxCell id="dpVUBXbJ4d0EwmAiKQ-G-42" value="Upon completion, the user marks the CR as fulfilled" style="rounded=1;whiteSpace=wrap;html=1;" vertex="1" parent="WIyWlLk6GJQsqaUBKTNV-1">
          <mxGeometry x="902" y="507" width="208" height="52" as="geometry" />
        </mxCell>
        <mxCell id="dpVUBXbJ4d0EwmAiKQ-G-44" value="The initial user validates the change or requests new one" style="rounded=1;whiteSpace=wrap;html=1;" vertex="1" parent="WIyWlLk6GJQsqaUBKTNV-1">
          <mxGeometry x="1190" y="507" width="208" height="52" as="geometry" />
        </mxCell>
        <mxCell id="dpVUBXbJ4d0EwmAiKQ-G-51" style="edgeStyle=orthogonalEdgeStyle;rounded=0;orthogonalLoop=1;jettySize=auto;html=1;entryX=0;entryY=0.5;entryDx=0;entryDy=0;" edge="1" parent="WIyWlLk6GJQsqaUBKTNV-1" source="dpVUBXbJ4d0EwmAiKQ-G-46" target="dpVUBXbJ4d0EwmAiKQ-G-47">
          <mxGeometry relative="1" as="geometry" />
        </mxCell>
        <mxCell id="dpVUBXbJ4d0EwmAiKQ-G-46" value="Change rebar group spacing and diameter" style="rounded=1;whiteSpace=wrap;html=1;" vertex="1" parent="WIyWlLk6GJQsqaUBKTNV-1">
          <mxGeometry x="32" y="630.5" width="208" height="39" as="geometry" />
        </mxCell>
        <mxCell id="dpVUBXbJ4d0EwmAiKQ-G-55" style="edgeStyle=orthogonalEdgeStyle;rounded=0;orthogonalLoop=1;jettySize=auto;html=1;entryX=0;entryY=0.5;entryDx=0;entryDy=0;" edge="1" parent="WIyWlLk6GJQsqaUBKTNV-1" source="dpVUBXbJ4d0EwmAiKQ-G-47" target="dpVUBXbJ4d0EwmAiKQ-G-48">
          <mxGeometry relative="1" as="geometry" />
        </mxCell>
        <mxCell id="dpVUBXbJ4d0EwmAiKQ-G-47" value="&lt;div align=&quot;left&quot;&gt;Change request object&lt;/div&gt;&lt;div&gt;&lt;ul&gt;&lt;li&gt;Localization&lt;/li&gt;&lt;li&gt;Applicability&lt;/li&gt;&lt;li&gt;Requirements&lt;/li&gt;&lt;/ul&gt;&lt;/div&gt;" style="rounded=1;whiteSpace=wrap;html=1;align=left;" vertex="1" parent="WIyWlLk6GJQsqaUBKTNV-1">
          <mxGeometry x="320" y="637" width="208" height="195" as="geometry" />
        </mxCell>
        <mxCell id="dpVUBXbJ4d0EwmAiKQ-G-56" style="edgeStyle=orthogonalEdgeStyle;rounded=0;orthogonalLoop=1;jettySize=auto;html=1;entryX=0;entryY=0.5;entryDx=0;entryDy=0;" edge="1" parent="WIyWlLk6GJQsqaUBKTNV-1" source="dpVUBXbJ4d0EwmAiKQ-G-48" target="dpVUBXbJ4d0EwmAiKQ-G-52">
          <mxGeometry relative="1" as="geometry" />
        </mxCell>
        <mxCell id="dpVUBXbJ4d0EwmAiKQ-G-48" value="Model responsible assigns the CR to an user" style="rounded=1;whiteSpace=wrap;html=1;" vertex="1" parent="WIyWlLk6GJQsqaUBKTNV-1">
          <mxGeometry x="620" y="630.5" width="208" height="52" as="geometry" />
        </mxCell>
        <mxCell id="dpVUBXbJ4d0EwmAiKQ-G-57" style="edgeStyle=orthogonalEdgeStyle;rounded=0;orthogonalLoop=1;jettySize=auto;html=1;" edge="1" parent="WIyWlLk6GJQsqaUBKTNV-1" source="dpVUBXbJ4d0EwmAiKQ-G-52" target="dpVUBXbJ4d0EwmAiKQ-G-53">
          <mxGeometry relative="1" as="geometry" />
        </mxCell>
        <mxCell id="dpVUBXbJ4d0EwmAiKQ-G-52" value="&lt;div&gt;The user assigned to completes the CR&lt;/div&gt;&lt;div&gt;If the requirements are fulfillled, the CR status is set to fullfiled, the user is informed&lt;/div&gt;&lt;div&gt;The user can set the CR as finished even without fullfilment&lt;br&gt;&lt;/div&gt;" style="rounded=1;whiteSpace=wrap;html=1;" vertex="1" parent="WIyWlLk6GJQsqaUBKTNV-1">
          <mxGeometry x="902" y="630.5" width="208" height="123.5" as="geometry" />
        </mxCell>
        <mxCell id="dpVUBXbJ4d0EwmAiKQ-G-58" style="edgeStyle=orthogonalEdgeStyle;rounded=0;orthogonalLoop=1;jettySize=auto;html=1;" edge="1" parent="WIyWlLk6GJQsqaUBKTNV-1" source="dpVUBXbJ4d0EwmAiKQ-G-53" target="dpVUBXbJ4d0EwmAiKQ-G-54">
          <mxGeometry relative="1" as="geometry" />
        </mxCell>
        <mxCell id="dpVUBXbJ4d0EwmAiKQ-G-53" value="The tracked items are recognized as fulfilling the requirements if that is the case. The database is updated" style="rounded=1;whiteSpace=wrap;html=1;" vertex="1" parent="WIyWlLk6GJQsqaUBKTNV-1">
          <mxGeometry x="1190" y="630.5" width="208" height="97.5" as="geometry" />
        </mxCell>
        <mxCell id="dpVUBXbJ4d0EwmAiKQ-G-54" value="The next user is hierarchy is notified of status" style="rounded=1;whiteSpace=wrap;html=1;" vertex="1" parent="WIyWlLk6GJQsqaUBKTNV-1">
          <mxGeometry x="1456" y="630.5" width="208" height="97.5" as="geometry" />
        </mxCell>
      </root>
    </mxGraphModel>
  </diagram>
</mxfile>
